<svg id="Layer_1" data-name="Layer 1" xmlns="http://www.w3.org/2000/svg" viewBox="0 0 28.02 19.56"><defs><style>.cls-1{fill:#030303;}</style></defs><title>Gaming</title><path class="cls-1" d="M28.32,15.88a44.33,44.33,0,0,0-3-7.61s-.07-.23-.1-.37c-.19-.74-.32-1.17-.68-1.3L20.94,5.31a1.53,1.53,0,0,0-1.35.16,7.76,7.76,0,0,1-1,.57H11.65a9.41,9.41,0,0,1-1.14-.56,1.54,1.54,0,0,0-1.36-.16L5.56,6.6c-.36.13-.49.55-.68,1.28,0,.14-.09.33-.1.37a41.84,41.84,0,0,0-3.1,7.66C.45,20.37.87,23.28,2.94,24.58a1.35,1.35,0,0,0,1.57-.12l4.26-3.62a2.88,2.88,0,0,1,1.86-.68h8.82a2.88,2.88,0,0,1,1.86.68l4.26,3.62a1.36,1.36,0,0,0,.88.33,1.27,1.27,0,0,0,.7-.21C29.15,23.25,29.54,20.33,28.32,15.88ZM14.75,7A.73.73,0,0,0,15,7h.82a.92.92,0,0,1-.33.71A.93.93,0,0,1,14,7ZM26.64,23.81a.39.39,0,0,1-.46-.05l-4.26-3.61a3.82,3.82,0,0,0-2.47-.9H10.63a3.82,3.82,0,0,0-2.47.9L3.9,23.75a.4.4,0,0,1-.47,0c-2.09-1.31-1.62-4.88-.86-7.64a40.82,40.82,0,0,1,3-7.47,2.84,2.84,0,0,0,.18-.58A6.06,6.06,0,0,1,6,7.43L9.47,6.18a.61.61,0,0,1,.55.08c1.24.7,1.5.7,1.59.7H13a1.84,1.84,0,0,0,1.54,1.83l.32,0a1.88,1.88,0,0,0,1.21-.43A1.84,1.84,0,0,0,16.77,7H18.6c.11,0,.36,0,1.5-.72a.59.59,0,0,1,.52-.06l3.47,1.25a6.19,6.19,0,0,1,.21.7,3,3,0,0,0,.17.55C25.12,9.95,30.64,21.15,26.64,23.81Zm-8-10.57A2.31,2.31,0,1,0,21,15.54,2.32,2.32,0,0,0,18.63,13.23Zm0,3.7A1.39,1.39,0,1,1,20,15.54,1.39,1.39,0,0,1,18.63,16.93Zm-8.4-6A2.33,2.33,0,1,0,7.9,13.23,2.32,2.32,0,0,0,10.23,10.92ZM7.9,12.31a1.39,1.39,0,1,1,1.4-1.39A1.39,1.39,0,0,1,7.9,12.31ZM21.9,10A.92.92,0,1,0,21,9.07.93.93,0,0,0,21.9,10ZM20,11.84a.92.92,0,1,0-.93-.92A.93.93,0,0,0,20,11.84ZM23.77,10a.92.92,0,1,0,.93.92A.93.93,0,0,0,23.77,10ZM21.9,11.84a.92.92,0,1,0,.93.92A.93.93,0,0,0,21.9,11.84ZM14.2,14H13.13V12.94a.8.8,0,0,0-.8-.79h-1.2a.8.8,0,0,0-.8.79V14H9.26a.8.8,0,0,0-.8.79V16a.8.8,0,0,0,.8.79h1.07v1.06a.8.8,0,0,0,.8.79h1.2a.8.8,0,0,0,.8-.79V16.77H14.2A.8.8,0,0,0,15,16V14.79A.8.8,0,0,0,14.2,14Zm-.13,1.85H12.2v1.85h-.93V15.84H9.4v-.92h1.87V13.07h.93v1.85h1.87Z" transform="translate(-0.99 -5.22)"/></svg>