<svg id="Layer_1" data-name="Layer 1" xmlns="http://www.w3.org/2000/svg" viewBox="0 0 18.58 22.19"><defs><style>.cls-1{fill:#030303;}</style></defs><title>harddrives</title><path class="cls-1" d="M23.77,3.9H6.23a.52.52,0,0,0-.52.52V25.57a.52.52,0,0,0,.52.52H23.77a.52.52,0,0,0,.52-.52V4.43A.52.52,0,0,0,23.77,3.9Zm-.52,21.15H6.75V4.95h16.5Zm-3.09-5.22A1.83,1.83,0,1,0,22,21.66,1.83,1.83,0,0,0,20.16,19.83Zm0,2.61a.78.78,0,1,1,.78-.78A.78.78,0,0,1,20.16,22.44Zm-7-9.4A1.79,1.79,0,1,0,15,11.25,1.79,1.79,0,0,0,13.21,13Zm2.53,0a.75.75,0,1,1-.75-.75A.75.75,0,0,1,15.75,13Zm1.36,9.4H8.86a.52.52,0,0,0,0,1h8.25a.52.52,0,0,0,0-1Zm-5.68-8.88a.52.52,0,0,0,.52-.52A3.06,3.06,0,0,1,15,10a.52.52,0,0,0,0-1A4.11,4.11,0,0,0,10.91,13,.52.52,0,0,0,11.43,13.56ZM8.22,20.5a3.93,3.93,0,0,0,1.66-.14,3.53,3.53,0,0,0,.61-.26,2.24,2.24,0,0,0,.62-.46,6.76,6.76,0,0,0,.58-.95A6.47,6.47,0,0,0,15,19.6a6.56,6.56,0,1,0-5.6-3.2,6.54,6.54,0,0,0-.93.58A2.22,2.22,0,0,0,8,17.6a3.58,3.58,0,0,0-.26.62,5.58,5.58,0,0,0-.14,1.67A1.15,1.15,0,0,0,8.22,20.5ZM15,7.53a5.52,5.52,0,0,1,0,11,5.43,5.43,0,0,1-2.74-.74c.08-.13,1.44-2.55,1.45-2.57a.66.66,0,0,0-.88-.88s-2.43,1.37-2.57,1.46A5.52,5.52,0,0,1,15,7.53ZM8.92,18.09a1.19,1.19,0,0,1,.24-.34,29.25,29.25,0,0,1,3-1.86c-.07.12-1.31,2.34-1.85,3h0a1.23,1.23,0,0,1-.34.25c-.14.07-1.14.56-1.39.31S8.85,18.23,8.92,18.09Z" transform="translate(-5.71 -3.9)"/></svg>