<svg id="Layer_1" data-name="Layer 1" xmlns="http://www.w3.org/2000/svg" viewBox="0 0 28 20.36"><defs><style>.cls-1{fill:#010101;}</style></defs><title>laptops</title><path class="cls-1" d="M25.18,4.82a1.91,1.91,0,0,1,1.91,1.91V21.36h1.59a.32.32,0,0,1,.32.32V23a2.23,2.23,0,0,1-2.23,2.23H3.23A2.23,2.23,0,0,1,1,23V21.68a.33.33,0,0,1,.32-.32H2.91V6.73A1.91,1.91,0,0,1,4.82,4.82Zm0,.64H4.82A1.26,1.26,0,0,0,3.55,6.73v.64H26.45V6.73A1.26,1.26,0,0,0,25.18,5.45ZM26.45,8H3.55V21.36H26.45ZM7.52,9a.31.31,0,0,1,.22.1.32.32,0,0,1,0,.45L5,12.21a.32.32,0,0,1-.46-.46l2.7-2.69A.33.33,0,0,1,7.52,9Zm1.34.9a.32.32,0,0,1,.23.09.33.33,0,0,1,0,.46L5.94,13.55a.32.32,0,0,1-.45-.45L8.65,9.95A.3.3,0,0,1,8.87,9.86ZM28.36,22H1.64v1a1.58,1.58,0,0,0,1.59,1.59H26.77A1.58,1.58,0,0,0,28.36,23Z" transform="translate(-1 -4.82)"/></svg>