<svg id="Layer_1" data-name="Layer 1" xmlns="http://www.w3.org/2000/svg" viewBox="0 0 28 21.72"><defs><style>.cls-1{fill:#070707;}</style></defs><title>monitors</title><path class="cls-1" d="M23.87,21.14H1.93V5.09H3.8V19.72a.47.47,0,1,0,.93,0V4.61a.47.47,0,0,0-.47-.47H1.47A.47.47,0,0,0,1,4.61v17a.47.47,0,0,0,.47.47h22.4a.47.47,0,0,0,0-.94ZM18.4,8.53a.48.48,0,0,0,0,.67L21.2,12a.46.46,0,0,0,.66,0,.48.48,0,0,0,0-.67l-2.8-2.83A.46.46,0,0,0,18.4,8.53Zm.8,16.38H15.47V23.5a.47.47,0,1,0-.93,0v1.42H10.8a.47.47,0,0,0,0,.94h8.4a.47.47,0,0,0,0-.94ZM16.87,10.28a.46.46,0,0,0,.33-.14.48.48,0,0,0,0-.67L16.73,9a.46.46,0,0,0-.66,0,.48.48,0,0,0,0,.67l.47.47A.46.46,0,0,0,16.87,10.28ZM22,9.81a.46.46,0,0,0,.33-.14.48.48,0,0,0,0-.67l-.93-.94a.46.46,0,0,0-.66,0,.48.48,0,0,0,0,.67l.93.94A.46.46,0,0,0,22,9.81Zm6.53-5.66H6.13a.47.47,0,0,0,0,.94H28.07V21.14H26.2V6.5a.47.47,0,1,0-.93,0V21.61a.47.47,0,0,0,.47.47h2.8a.47.47,0,0,0,.47-.47v-17A.47.47,0,0,0,28.53,4.14Zm-10.6,7.41,2.33,2.36a.46.46,0,0,0,.66,0,.48.48,0,0,0,0-.67L18.6,10.89a.46.46,0,0,0-.66,0A.48.48,0,0,0,17.94,11.56Z" transform="translate(-1 -4.14)"/></svg>