<svg id="Layer_1" data-name="Layer 1" xmlns="http://www.w3.org/2000/svg" viewBox="0 0 27.75 23.06"><defs><style>.cls-1{fill:#0d0d0d;}</style></defs><title>printers</title><path class="cls-1" d="M26.92,7H21.74V4.06a.59.59,0,0,0-.59-.59H8.85a.59.59,0,0,0-.59.59V7H3.08a2,2,0,0,0-2,2v9.38a2,2,0,0,0,2,2H8.26v5.67a.59.59,0,0,0,.59.59h12.3a.59.59,0,0,0,.59-.59V20.27h5.18a2,2,0,0,0,2-2V8.94A2,2,0,0,0,26.92,7ZM21.74,8.16h1.4V9.81h-1.4ZM9.44,4.65H20.56V9.81H9.44ZM6.86,8.16h1.4V9.81H6.86ZM20.56,25.35H9.44V17.6H20.56Zm7.14-7a.78.78,0,0,1-.78.78H21.74V17.6h1.07a.59.59,0,0,0,0-1.18H7.19a.59.59,0,0,0,0,1.18H8.26v1.5H3.08a.78.78,0,0,1-.78-.78V8.94a.78.78,0,0,1,.78-.78h2.6V10.4a.59.59,0,0,0,.59.59H23.73a.59.59,0,0,0,.59-.59V8.16h2.6a.78.78,0,0,1,.78.78Zm-22.85-6a.74.74,0,1,0,.74.74A.74.74,0,0,0,4.85,12.27Zm7.23,11h2.75a.59.59,0,0,0,0-1.18H12.08a.59.59,0,0,0,0,1.18Zm0-3h5.84a.59.59,0,0,0,0-1.18H12.08a.59.59,0,0,0,0,1.18Z" transform="translate(-1.12 -3.47)"/></svg>