<?xml version="1.0" encoding="utf-8"?>
<!-- Generator: Adobe Illustrator 18.0.0, SVG Export Plug-In . SVG Version: 6.00 Build 0)  -->
<!DOCTYPE svg PUBLIC "-//W3C//DTD SVG 1.1//EN" "http://www.w3.org/Graphics/SVG/1.1/DTD/svg11.dtd">
<svg version="1.1" id="Layer_1" xmlns="http://www.w3.org/2000/svg" xmlns:xlink="http://www.w3.org/1999/xlink" x="0px" y="0px"
	 viewBox="0 0 30 30" enable-background="new 0 0 30 30" xml:space="preserve">
<title>laptops</title>
<linearGradient id="SVGID_1_" gradientUnits="userSpaceOnUse" x1="5.990928e-002" y1="15.048" x2="30.0139" y2="15.048">
	<stop  offset="0" style="stop-color:#F69366"/>
	<stop  offset="1" style="stop-color:#6D3C92"/>
</linearGradient>
<path fill="url(#SVGID_1_)" d="M29.3,15.9c-0.8-2.8-1.9-5.5-3.2-8.1c0,0-0.1-0.2-0.1-0.4c-0.2-0.8-0.3-1.3-0.7-1.4l-3.9-1.4
	c-0.5-0.2-1-0.1-1.4,0.2c-0.3,0.2-0.7,0.4-1.1,0.6h-7.4C11,5.2,10.6,5,10.2,4.8c-0.4-0.3-1-0.3-1.5-0.2L4.9,6
	C4.5,6.1,4.4,6.6,4.2,7.4c0,0.1-0.1,0.4-0.1,0.4c-1.4,2.6-2.5,5.4-3.3,8.2c-1.3,4.8-0.9,7.9,1.3,9.3c0.5,0.3,1.2,0.3,1.7-0.1
	l4.6-3.9c0.6-0.5,1.3-0.7,2-0.7h9.4c0.7,0,1.4,0.3,2,0.7l4.6,3.9c0.3,0.2,0.6,0.4,0.9,0.4s0.5-0.1,0.7-0.2
	C30.1,23.8,30.6,20.7,29.3,15.9z M14.7,6.4c0.1,0,0.2,0,0.3,0h0.9c0,0.3-0.1,0.6-0.4,0.8c-0.4,0.3-1.1,0.2-1.4-0.2
	c-0.1-0.2-0.2-0.4-0.2-0.6C13.9,6.4,14.7,6.4,14.7,6.4z M27.5,24.4c-0.2,0.1-0.4,0.1-0.5-0.1l-4.6-3.9c-0.7-0.6-1.7-1-2.6-1h-9.4
	c-1,0-1.9,0.3-2.6,1l-4.6,3.9c-0.2,0.1-0.4,0.1-0.5,0c-2.2-1.4-1.7-5.2-0.9-8.2c0.8-2.8,1.9-5.4,3.2-8C5,8,5.1,7.8,5.1,7.6
	c0.1-0.2,0.2-0.5,0.3-0.7l3.7-1.3c0.2-0.1,0.4,0,0.6,0.1c1.3,0.7,1.6,0.7,1.7,0.7h1.5c0,1,0.7,1.8,1.6,2h0.3c0.5,0,0.9-0.2,1.3-0.5
	c0.4-0.4,0.7-0.9,0.7-1.5h2c0.1,0,0.4,0,1.6-0.8c0.2-0.1,0.4-0.1,0.6-0.1l3.7,1.3c0.1,0.2,0.2,0.5,0.2,0.7s0.1,0.4,0.2,0.6
	C25.8,9.6,31.7,21.6,27.5,24.4z M18.9,13.1c-1.4,0-2.4,1.2-2.4,2.5S17.7,18,19,18s2.4-1.1,2.4-2.5C21.4,14.2,20.3,13.1,18.9,13.1
	L18.9,13.1L18.9,13.1z M18.9,17.1c-0.8,0-1.5-0.6-1.5-1.5c0-0.8,0.6-1.5,1.5-1.5s1.5,0.6,1.5,1.5l0,0C20.4,16.4,19.7,17,18.9,17.1
	L18.9,17.1z M9.9,10.6c0-1.4-1.1-2.5-2.5-2.5s-2.5,1.1-2.5,2.5s1.1,2.5,2.5,2.5l0,0C8.8,13.1,9.9,12,9.9,10.6L9.9,10.6L9.9,10.6z
	 M7.4,12.1c-0.8,0-1.5-0.7-1.5-1.5s0.7-1.5,1.5-1.5s1.5,0.7,1.5,1.5C8.9,11.4,8.2,12.1,7.4,12.1L7.4,12.1z M22.4,9.6
	c0.5,0,1-0.4,1-1c0-0.5-0.4-1-1-1c-0.5,0-1,0.4-1,1l0,0C21.4,9.2,21.8,9.6,22.4,9.6z M20.4,11.6c0.5,0,1-0.5,1-1s-0.5-1-1-1
	s-1,0.4-1,1C19.4,11.2,19.8,11.6,20.4,11.6z M24.4,9.6c-0.5,0-1,0.5-1,1s0.5,1,1,1s1-0.4,1-1C25.4,10.1,24.9,9.6,24.4,9.6z
	 M22.4,11.6c-0.5,0-1,0.5-1,1s0.5,1,1,1s1-0.4,1-1S22.9,11.6,22.4,11.6z M14.1,13.9H13v-1.1c0-0.5-0.4-0.8-0.9-0.8h-1.3
	c-0.5,0-0.9,0.4-0.9,0.8v1.1h-1c-0.5,0-0.9,0.4-0.9,0.8V16c0,0.5,0.4,0.8,0.9,0.8H10V18c0,0.5,0.4,0.8,0.9,0.8h1.3
	c0.5,0,0.9-0.4,0.9-0.8v-1.2h1.1c0.5,0,0.8-0.4,0.9-0.8v-1.3C15,14.3,14.6,13.9,14.1,13.9z M14,15.9h-2v2h-1v-2H9v-1h2v-2h1v2h2
	V15.9z"/>
</svg>
