<?xml version="1.0" encoding="utf-8"?>
<!-- Generator: Adobe Illustrator 18.0.0, SVG Export Plug-In . SVG Version: 6.00 Build 0)  -->
<!DOCTYPE svg PUBLIC "-//W3C//DTD SVG 1.1//EN" "http://www.w3.org/Graphics/SVG/1.1/DTD/svg11.dtd">
<svg version="1.1" id="Layer_1" xmlns="http://www.w3.org/2000/svg" xmlns:xlink="http://www.w3.org/1999/xlink" x="0px" y="0px"
	 viewBox="0 0 30 30" enable-background="new 0 0 30 30" xml:space="preserve">
<title>laptops</title>
<linearGradient id="SVGID_1_" gradientUnits="userSpaceOnUse" x1="6.1" y1="15" x2="23.9" y2="15">
	<stop  offset="0" style="stop-color:#F69366"/>
	<stop  offset="1" style="stop-color:#6D3C92"/>
</linearGradient>
<path fill="url(#SVGID_1_)" d="M23.4,4.4H6.6c-0.3,0-0.5,0.2-0.5,0.5v20.2c0,0.3,0.2,0.5,0.5,0.5l0,0h16.8c0.3,0,0.5-0.2,0.5-0.5
	l0,0V4.9C23.9,4.6,23.7,4.4,23.4,4.4L23.4,4.4z M22.9,24.6H7.1V5.4h15.8V24.6z M19.9,19.6c-1,0-1.7,0.8-1.7,1.8s0.8,1.7,1.8,1.7
	s1.7-0.8,1.7-1.8C21.7,20.4,20.9,19.6,19.9,19.6L19.9,19.6z M19.9,22.1c-0.4,0-0.7-0.3-0.7-0.7s0.3-0.7,0.7-0.7s0.7,0.3,0.7,0.7
	S20.3,22.1,19.9,22.1L19.9,22.1z M13.2,13.1c0,0.9,0.8,1.7,1.7,1.7s1.7-0.8,1.7-1.7s-0.7-1.7-1.7-1.7C14.1,11.4,13.3,12.2,13.2,13.1
	L13.2,13.1z M15.7,13.1c0,0.4-0.3,0.7-0.7,0.7s-0.7-0.3-0.7-0.7s0.3-0.7,0.7-0.7C15.3,12.4,15.7,12.7,15.7,13.1L15.7,13.1L15.7,13.1
	z M17,22.1H9.1c-0.3,0.1-0.4,0.4-0.3,0.6C8.8,22.9,9,23,9.1,23H17c0.3-0.1,0.4-0.4,0.3-0.6C17.3,22.3,17.2,22.2,17,22.1L17,22.1z
	 M11.5,13.6c0.3,0,0.5-0.2,0.5-0.5c0-1.6,1.3-2.9,2.9-2.9l0,0c0.3-0.1,0.4-0.4,0.3-0.6c0-0.2-0.2-0.3-0.3-0.3
	c-2.1,0-3.9,1.7-3.9,3.8C11.1,13.4,11.3,13.6,11.5,13.6C11.6,13.6,11.6,13.6,11.5,13.6L11.5,13.6z M8.5,20.3c0.5,0.1,1.1,0,1.6-0.1
	c0.2-0.1,0.4-0.1,0.6-0.2c0.2-0.1,0.4-0.3,0.6-0.4c0.2-0.3,0.4-0.6,0.6-0.9c1,0.6,2.1,0.9,3.2,0.9c3.5,0,6.3-2.8,6.3-6.2
	c0-3.5-2.8-6.3-6.2-6.3c-3.5,0-6.3,2.8-6.3,6.2c0,1.1,0.3,2.3,0.9,3.2c-0.3,0.2-0.6,0.3-0.9,0.6c-0.2,0.2-0.3,0.4-0.4,0.6
	c-0.1,0.2-0.2,0.4-0.2,0.6c-0.1,0.5-0.2,1.1-0.1,1.6C8,19.9,8.2,20.2,8.5,20.3z M15,7.9c2.9,0.2,5.1,2.8,4.8,5.7
	c-0.2,2.6-2.3,4.6-4.8,4.8c-0.9,0-1.8-0.2-2.6-0.7c0.1-0.1,1.4-2.4,1.4-2.5c0.2-0.3,0-0.7-0.3-0.8c-0.2-0.1-0.4-0.1-0.5,0
	c0,0-2.3,1.3-2.5,1.4C9,13.2,9.9,10,12.4,8.6C13.2,8.1,14.1,7.9,15,7.9z M9.2,18c0.1-0.1,0.1-0.2,0.2-0.3c0.9-0.7,1.9-1.2,2.9-1.8
	c-0.1,0.1-1.3,2.2-1.8,2.9l0,0c-0.1,0.1-0.2,0.2-0.3,0.2c-0.1,0.1-1.1,0.5-1.3,0.3C8.6,19,9.1,18.1,9.2,18z"/>
</svg>
