<?xml version="1.0" encoding="utf-8"?>
<!-- Generator: Adobe Illustrator 18.0.0, SVG Export Plug-In . SVG Version: 6.00 Build 0)  -->
<!DOCTYPE svg PUBLIC "-//W3C//DTD SVG 1.1//EN" "http://www.w3.org/Graphics/SVG/1.1/DTD/svg11.dtd">
<svg version="1.1" id="Layer_1" xmlns="http://www.w3.org/2000/svg" xmlns:xlink="http://www.w3.org/1999/xlink" x="0px" y="0px"
	 viewBox="0 0 30 30" enable-background="new 0 0 30 30" xml:space="preserve">
<title>laptops</title>
<linearGradient id="SVGID_1_" gradientUnits="userSpaceOnUse" x1="0" y1="15" x2="29.9" y2="15">
	<stop  offset="0" style="stop-color:#F69366"/>
	<stop  offset="1" style="stop-color:#6D3C92"/>
</linearGradient>
<path fill="url(#SVGID_1_)" d="M25.9,4.1c1.1,0,2,0.9,2,2v15.7h1.7c0.2,0,0.3,0.2,0.3,0.3v1.4c0,1.3-1.1,2.4-2.4,2.4H2.4
	c-1.3,0-2.4-1.1-2.4-2.4v-1.4c0-0.2,0.2-0.3,0.3-0.3H2V6.1c0-1.1,0.9-2,2-2H25.9z M25.9,4.8H4.1c-0.7,0-1.4,0.6-1.4,1.3l0,0v0.7
	h24.5V6.1C27.3,5.4,26.7,4.8,25.9,4.8C25.9,4.7,25.9,4.7,25.9,4.8L25.9,4.8z M27.3,7.5H2.7v14.3h24.5L27.3,7.5L27.3,7.5z M7,8.5
	c0.1,0,0.2,0,0.2,0.1c0.1,0.1,0.1,0.3,0,0.5L4.3,12c-0.1,0.1-0.4,0.1-0.5,0s-0.1-0.4,0-0.5l2.9-2.9C6.8,8.5,6.9,8.5,7,8.5z M8.4,9.5
	c0.1,0,0.2,0,0.2,0.1c0.1,0.1,0.1,0.4,0,0.5l-3.4,3.3c-0.1,0.1-0.4,0.1-0.5-0.1c-0.1-0.1-0.1-0.3,0-0.4l3.4-3.4
	C8.3,9.5,8.3,9.5,8.4,9.5L8.4,9.5z M29.3,22.5H0.7v1.1c0,0.9,0.7,1.7,1.7,1.7l0,0h25.2c0.9,0,1.7-0.7,1.7-1.7l0,0
	C29.3,23.6,29.3,22.5,29.3,22.5z"/>
</svg>
