<?xml version="1.0" encoding="utf-8"?>
<!-- Generator: Adobe Illustrator 18.0.0, SVG Export Plug-In . SVG Version: 6.00 Build 0)  -->
<!DOCTYPE svg PUBLIC "-//W3C//DTD SVG 1.1//EN" "http://www.w3.org/Graphics/SVG/1.1/DTD/svg11.dtd">
<svg version="1.1" id="Layer_1" xmlns="http://www.w3.org/2000/svg" xmlns:xlink="http://www.w3.org/1999/xlink" x="0px" y="0px"
	 viewBox="0 0 30 30" enable-background="new 0 0 30 30" xml:space="preserve">
<title>laptops</title>
<path d="M24.5,21.6H1V4.4h2v15.7c0,0.3,0.1,0.5,0.4,0.6S4,20.5,4,20.2c0,0,0-0.1,0-0.1V3.9c0-0.3-0.2-0.5-0.5-0.5h-3
	C0.2,3.4,0,3.6,0,3.9v18.2c0,0.3,0.2,0.5,0.5,0.5h24c0.3,0,0.5-0.2,0.5-0.5C25,21.8,24.8,21.6,24.5,21.6z M18.6,8.1
	c-0.2,0.2-0.2,0.5,0,0.7l3,3c0.2,0.2,0.5,0.2,0.7,0c0,0,0,0,0,0c0.2-0.2,0.2-0.5,0-0.7l-3-3C19.1,7.9,18.8,7.9,18.6,8.1
	C18.6,8.1,18.6,8.1,18.6,8.1z M19.5,25.6h-4v-1.5c0-0.3-0.1-0.5-0.4-0.6c-0.3,0-0.5,0.1-0.6,0.4c0,0,0,0.1,0,0.1v1.5h-4
	c-0.3,0-0.5,0.2-0.5,0.5c0,0.3,0.2,0.5,0.5,0.5h9c0.3,0,0.5-0.2,0.5-0.5C20,25.9,19.8,25.6,19.5,25.6L19.5,25.6z M17,9.9
	c0.1,0,0.3-0.1,0.4-0.1c0.2-0.2,0.2-0.5,0-0.7l-0.5-0.5c-0.2-0.2-0.5-0.2-0.7,0c0,0,0,0,0,0c-0.2,0.2-0.2,0.5,0,0.7l0.5,0.5
	C16.7,9.9,16.9,9.9,17,9.9z M22.5,9.4c0.1,0,0.3-0.1,0.4-0.1c0.2-0.2,0.2-0.5,0-0.7l-1-1c-0.2-0.2-0.5-0.2-0.7,0c0,0,0,0,0,0
	c-0.2,0.2-0.2,0.5,0,0.7l1,1C22.2,9.4,22.4,9.4,22.5,9.4z M29.5,3.4h-24C5.2,3.4,5,3.6,5,3.9c0,0.3,0.2,0.5,0.5,0.5l0,0H29v17.2h-2
	V5.9c0-0.3-0.1-0.5-0.4-0.6c-0.3,0-0.5,0.1-0.6,0.4c0,0,0,0.1,0,0.1v16.2c0,0.3,0.2,0.5,0.5,0.5h3c0.3,0,0.5-0.2,0.5-0.5V3.9
	C30,3.6,29.8,3.4,29.5,3.4C29.5,3.4,29.5,3.4,29.5,3.4L29.5,3.4z M18.1,11.3l2.5,2.5c0.2,0.2,0.5,0.2,0.7,0c0,0,0,0,0,0
	c0.2-0.2,0.2-0.5,0-0.7l-2.5-2.5c-0.2-0.2-0.5-0.2-0.7,0c0,0,0,0,0,0C17.9,10.8,17.9,11.1,18.1,11.3L18.1,11.3z"/>
</svg>
