<?xml version="1.0" encoding="utf-8"?>
<!-- Generator: Adobe Illustrator 18.0.0, SVG Export Plug-In . SVG Version: 6.00 Build 0)  -->
<!DOCTYPE svg PUBLIC "-//W3C//DTD SVG 1.1//EN" "http://www.w3.org/Graphics/SVG/1.1/DTD/svg11.dtd">
<svg version="1.1" id="Layer_1" xmlns="http://www.w3.org/2000/svg" xmlns:xlink="http://www.w3.org/1999/xlink" x="0px" y="0px"
	 viewBox="0 0 30 30" enable-background="new 0 0 30 30" xml:space="preserve">
<g transform="translate(0,-952.36218)">
	<path fill="#010101" d="M25.2,957.2c1.1,0,1.9,0.9,1.9,1.9v14.6h1.6c0.2,0,0.3,0.2,0.3,0.3v1.3c0,1.2-1,2.2-2.2,2.2H3.2
		c-1.2,0-2.2-1-2.2-2.2V974c0-0.2,0.2-0.3,0.3-0.3h1.6v-14.6c0-1.1,0.9-1.9,1.9-1.9H25.2z M25.2,957.8H4.8c-0.7,0-1.3,0.6-1.3,1.3
		v0.6h22.9v-0.6C26.5,958.4,25.9,957.8,25.2,957.8z M26.5,960.4H3.5v13.4h22.9V960.4z M7.5,961.3c0.1,0,0.2,0,0.2,0.1
		c0.1,0.1,0.1,0.3,0,0.4L5,964.6c-0.1,0.1-0.3,0.1-0.5,0c-0.1-0.1-0.1-0.3,0-0.5l2.7-2.7C7.4,961.4,7.4,961.3,7.5,961.3z M8.9,962.2
		c0.1,0,0.2,0,0.2,0.1c0.1,0.1,0.1,0.3,0,0.5l-3.2,3.1c-0.1,0.1-0.3,0.1-0.4,0c-0.1-0.1-0.1-0.3,0-0.4l3.2-3.2
		C8.7,962.2,8.8,962.2,8.9,962.2z M28.4,974.4H1.6v1c0,0.9,0.7,1.6,1.6,1.6h23.5c0.9,0,1.6-0.7,1.6-1.6V974.4z"/>
</g>
</svg>
